<?xml version="1.0" standalone="no"?>
<!DOCTYPE svg PUBLIC "-//W3C//DTD SVG 20010904//EN"
 "http://www.w3.org/TR/2001/REC-SVG-20010904/DTD/svg10.dtd">
<svg version="1.0" xmlns="http://www.w3.org/2000/svg"
 width="408.000000pt" height="45.000000pt" viewBox="0 0 408.000000 45.000000"
 preserveAspectRatio="xMidYMid meet">

<g transform="translate(0.000000,45.000000) scale(0.100000,-0.100000)"
fill="#000000" stroke="none">
<path d="M0 230 l0 -220 2040 0 2040 0 0 220 0 220 -2040 0 -2040 0 0 -220z
m99 42 c6 -21 14 -52 17 -70 9 -44 19 -33 34 39 13 59 34 85 50 60 4 -7 13
-37 19 -67 7 -29 16 -56 21 -59 4 -3 13 25 20 61 11 59 30 87 46 71 3 -3 -1
-39 -11 -79 -30 -137 -34 -148 -55 -148 -19 0 -29 24 -46 109 -8 40 -16 28
-33 -52 -11 -50 -16 -58 -34 -55 -18 3 -25 19 -48 110 -14 59 -24 110 -21 113
15 15 32 1 41 -33z m361 18 c0 -17 -7 -20 -40 -20 -38 0 -40 -2 -40 -30 0 -28
3 -30 35 -30 24 0 35 -5 35 -15 0 -10 -11 -15 -35 -15 -33 0 -35 -2 -35 -35 0
-34 1 -35 40 -35 29 0 40 -4 40 -15 0 -12 -13 -15 -55 -15 l-55 0 0 115 0 115
55 0 c48 0 55 -2 55 -20z m80 -80 l0 -100 40 0 c29 0 40 -4 40 -15 0 -12 -13
-15 -55 -15 l-55 0 0 115 c0 96 3 115 15 115 12 0 15 -18 15 -100z m260 81 c0
-17 -8 -20 -52 -23 l-53 -3 0 -75 0 -75 53 -3 c38 -2 52 -7 52 -18 0 -12 -13
-14 -67 -12 l-68 3 -3 100 c-3 117 2 125 85 125 46 0 53 -3 53 -19z m183 6
c15 -10 17 -27 15 -112 l-3 -100 -70 0 -70 0 -3 100 c-2 85 0 102 15 112 22
17 94 17 116 0z m124 -44 l26 -58 25 58 c18 40 31 57 44 57 16 0 18 -10 18
-115 0 -108 -1 -115 -20 -115 -18 0 -20 7 -21 63 l-1 62 -14 -32 c-19 -43 -39
-42 -63 5 l-20 37 -1 -67 c0 -54 -3 -68 -15 -68 -12 0 -15 19 -15 115 0 97 2
115 16 115 9 0 26 -23 41 -57z m273 37 c0 -17 -7 -20 -40 -20 -38 0 -40 -2
-40 -30 0 -28 3 -30 35 -30 24 0 35 -5 35 -15 0 -10 -11 -15 -35 -15 -33 0
-35 -2 -35 -35 0 -34 1 -35 40 -35 29 0 40 -4 40 -15 0 -12 -13 -15 -60 -15
l-60 0 0 108 c0 60 3 112 7 115 3 4 30 7 60 7 46 0 53 -2 53 -20z m228 -2 c3
-15 -4 -18 -42 -18 -42 0 -46 -2 -46 -24 0 -20 7 -26 45 -35 l46 -12 -3 -57
-3 -57 -54 -3 c-37 -2 -57 1 -62 10 -6 10 3 14 39 18 42 4 47 8 47 30 0 19 -7
26 -35 35 -54 16 -60 23 -60 70 0 53 16 66 80 62 34 -1 46 -6 48 -19z m82 -78
l0 -100 40 0 39 0 3 97 c3 84 6 98 21 101 15 3 17 -7 17 -100 0 -68 -4 -108
-12 -116 -7 -7 -38 -12 -70 -12 -72 0 -78 9 -78 128 0 90 3 102 27 102 10 0
13 -23 13 -100z m290 80 c0 -17 -7 -20 -45 -20 -43 0 -45 -1 -45 -30 0 -28 3
-30 35 -30 28 0 35 -4 35 -20 0 -16 -7 -20 -35 -20 -35 0 -35 0 -35 -45 0 -33
-4 -45 -15 -45 -12 0 -15 19 -15 115 l0 115 60 0 c53 0 60 -2 60 -20z m120 0
c0 -11 -7 -20 -15 -20 -12 0 -15 -16 -15 -80 0 -64 3 -80 15 -80 8 0 15 -7 15
-15 0 -11 -12 -15 -45 -15 -33 0 -45 4 -45 15 0 8 7 15 15 15 12 0 15 16 15
80 0 64 -3 80 -15 80 -8 0 -15 9 -15 20 0 17 7 20 45 20 38 0 45 -3 45 -20z
m156 -90 c19 -58 34 -108 34 -112 0 -5 -9 -8 -20 -8 -15 0 -22 9 -26 30 -6 26
-11 30 -39 30 -29 0 -34 -4 -40 -30 -5 -21 -13 -30 -26 -30 -10 0 -19 3 -19 6
0 10 61 207 67 217 3 4 12 7 20 5 10 -2 28 -40 49 -108z m139 42 l40 -67 3 68
c2 58 6 68 20 65 15 -3 17 -19 20 -116 2 -103 1 -112 -16 -112 -12 0 -31 23
-57 68 l-40 67 -3 -67 c-3 -60 -5 -68 -22 -68 -19 0 -20 8 -20 115 0 103 2
115 18 115 10 0 32 -26 57 -68z m275 48 c0 -11 -7 -20 -15 -20 -12 0 -15 -16
-15 -80 0 -64 3 -80 15 -80 8 0 15 -7 15 -15 0 -11 -12 -15 -45 -15 -33 0 -45
4 -45 15 0 8 5 15 10 15 6 0 10 33 10 80 0 47 -4 80 -10 80 -5 0 -10 9 -10 20
0 17 7 20 45 20 38 0 45 -3 45 -20z m150 1 c0 -16 -8 -20 -42 -23 -35 -2 -43
-7 -43 -23 0 -14 12 -24 45 -35 l45 -16 0 -54 0 -55 -62 -3 c-52 -2 -63 0 -63
13 0 11 11 15 45 15 43 0 45 1 45 29 0 26 -5 30 -45 40 l-45 11 0 54 c0 61 3
64 73 65 40 1 47 -2 47 -18z m80 -31 c0 -49 1 -50 30 -50 17 0 30 5 30 13 0
32 22 87 35 87 17 0 19 -30 5 -81 -8 -27 -6 -48 5 -85 19 -62 19 -64 -3 -64
-13 0 -23 14 -33 48 -13 39 -19 47 -39 47 -23 0 -25 -5 -28 -47 -2 -34 -7 -48
-18 -48 -11 0 -14 21 -14 115 0 96 3 115 15 115 11 0 15 -12 15 -50z m270 -52
c18 -55 34 -107 37 -115 3 -8 -2 -13 -15 -13 -13 0 -24 10 -31 30 -15 44 -66
44 -76 0 -5 -21 -13 -30 -26 -30 -10 0 -19 6 -19 13 0 14 56 192 65 207 18 29
36 4 65 -92z m144 29 l41 -68 3 71 c2 53 6 70 17 70 12 0 15 -21 15 -115 0
-141 -10 -147 -72 -42 l-43 72 -3 -72 c-2 -56 -6 -73 -17 -73 -12 0 -15 21
-15 116 0 103 2 115 17 112 9 -2 35 -34 57 -71z m269 60 c15 -10 17 -27 15
-112 l-3 -100 -77 -3 -78 -3 0 109 c0 60 3 112 7 115 11 12 119 7 136 -6z
m183 -97 c19 -58 34 -108 34 -112 0 -5 -9 -8 -20 -8 -15 0 -22 9 -26 30 -6 26
-11 30 -39 30 -29 0 -34 -4 -40 -30 -5 -21 -13 -30 -26 -30 -10 0 -19 3 -19 6
0 10 61 207 67 217 3 4 12 7 20 5 10 -2 28 -40 49 -108z m186 98 c12 -10 17
-40 22 -116 6 -95 5 -103 -11 -100 -12 2 -20 15 -23 38 -4 31 -9 35 -37 38
-32 3 -33 2 -33 -37 0 -34 -3 -41 -20 -41 -19 0 -20 7 -20 115 l0 115 53 0
c29 0 60 -6 69 -12z"/>
<path d="M880 190 l0 -80 45 0 45 0 0 80 0 80 -45 0 -45 0 0 -80z"/>
<path d="M2193 206 c-10 -33 -9 -36 8 -36 20 0 24 20 10 54 -6 15 -9 12 -18
-18z"/>
<path d="M3116 218 c-15 -45 -15 -48 4 -48 21 0 24 12 10 45 -7 18 -8 18 -14
3z"/>
<path d="M3480 190 l0 -81 43 3 42 3 0 75 0 75 -42 3 -43 3 0 -81z"/>
<path d="M3703 206 c-10 -33 -9 -36 8 -36 20 0 24 20 10 54 -6 15 -9 12 -18
-18z"/>
<path d="M3870 234 c0 -34 1 -35 33 -32 28 3 32 7 35 36 3 31 2 32 -32 32 -35
0 -36 -1 -36 -36z"/>
</g>
</svg>
